<svg width="72" height="68" viewBox="0 0 72 68" fill="none" xmlns="http://www.w3.org/2000/svg">
<g filter="url(#filter0_f_1551_10246)">
<path d="M57 19.5683C53.4445 14.3896 46.4919 11.7634 36.3389 11.7634H36.3224C26.1848 11.7663 19.2494 14.3936 15.7092 19.5722C12.7454 23.9071 12.3657 29.4337 12.3657 33.7634C12.3657 38.0932 12.7454 43.6192 15.7092 47.9541C19.2494 53.1322 26.1848 55.7595 36.323 55.7634H36.343C46.4954 55.7634 53.4451 53.1378 57.0006 47.9592C59.9827 43.6147 60.3657 38.0909 60.3657 33.764C60.3657 29.4371 59.9838 23.9133 57.0012 19.5694H57.0006L57 19.5683Z" fill="url(#paint0_linear_1551_10246)"/>
</g>
<path d="M56.3388 19.986C52.8972 14.9733 46.1675 12.431 36.3401 12.431H36.3235C26.5109 12.4339 19.7977 14.9767 16.3716 19.9893C13.503 24.1853 13.1353 29.5346 13.1353 33.7255C13.1353 37.9164 13.503 43.265 16.3716 47.461C19.7983 52.4731 26.5114 55.0165 36.3241 55.0199H36.3429C46.1698 55.0199 52.8966 52.4782 56.3381 47.4656C59.225 43.2605 59.5956 37.9135 59.5956 33.7255C59.5956 29.5374 59.2256 24.191 56.3388 19.986Z" fill="#09090A"/>
<path d="M33.4318 22.3397C31.5357 22.3397 30.0004 23.8571 30.0004 25.7311V27.7233H35.1474C35.6154 27.7233 36.0006 28.4005 36.0006 28.8631H27.4317C25.5357 28.8631 24.0004 30.3805 24.0004 32.2545V36.7392C24.0004 38.6132 25.5357 40.1307 27.4317 40.1307H28.8474V36.9524C28.8474 35.0784 30.3733 33.5609 32.2693 33.5609H38.5695C40.4655 33.5609 42.0008 32.0527 42.0008 30.1788V25.731C42.0008 23.857 40.4655 22.3396 38.5695 22.3396L33.4318 22.3397ZM32.5692 24.2485C33.0493 24.2485 33.4318 24.392 33.4318 25.0917C33.4318 25.7915 33.0493 26.1481 32.5692 26.1481C32.1012 26.1481 31.7161 25.7915 31.7161 25.0917C31.7161 24.392 32.1012 24.2485 32.5692 24.2485Z" fill="#E6C430"/>
<path d="M43.151 28.2693V31.4476C43.151 33.3216 41.6275 34.839 39.7314 34.839H33.4313C31.5353 34.839 30 36.3448 30 38.2188V42.6666C29.9998 43.1121 30.0884 43.5533 30.2607 43.965C30.4331 44.3767 30.6858 44.7508 31.0044 45.0659C31.3231 45.381 31.7014 45.6311 32.1178 45.8017C32.5342 45.9723 32.9806 46.0601 33.4313 46.0602H38.5689C39.0196 46.0601 39.466 45.9723 39.8824 45.8017C40.2988 45.6311 40.6771 45.381 40.9958 45.0659C41.3144 44.7508 41.5671 44.3767 41.7395 43.965C41.9118 43.5533 42.0004 43.1121 42.0002 42.6666V40.6743H36.8509C36.3829 40.6743 36.0001 39.9995 36.0001 39.5369H44.569C45.0198 39.5368 45.4661 39.449 45.8825 39.2783C46.2989 39.1077 46.6773 38.8577 46.9959 38.5426C47.3145 38.2274 47.5672 37.8533 47.7396 37.4417C47.9119 37.03 48.0005 36.5888 48.0003 36.1432V31.6607C48.0001 30.7613 47.6386 29.8988 46.9951 29.2628C46.3516 28.6269 45.479 28.2695 44.569 28.2693L43.151 28.2693ZM31.5844 33.6228L31.5797 33.6274C31.5941 33.6246 31.6098 33.6255 31.6242 33.6228H31.5844ZM39.4314 42.2519C39.8994 42.2519 40.2846 42.6085 40.2846 43.3082C40.2843 43.5316 40.1942 43.7456 40.0342 43.9033C39.8742 44.061 39.6574 44.1494 39.4314 44.1491C38.9514 44.1491 38.5689 44.008 38.5689 43.3082C38.5689 42.6085 38.9514 42.2519 39.4314 42.2519Z" fill="#E6C430"/>
<defs>
<filter id="filter0_f_1551_10246" x="0.964297" y="0.362002" width="70.8029" height="66.8029" filterUnits="userSpaceOnUse" color-interpolation-filters="sRGB">
<feFlood flood-opacity="0" result="BackgroundImageFix"/>
<feBlend mode="normal" in="SourceGraphic" in2="BackgroundImageFix" result="shape"/>
<feGaussianBlur stdDeviation="5.70071" result="effect1_foregroundBlur_1551_10246"/>
</filter>
<linearGradient id="paint0_linear_1551_10246" x1="12.3652" y1="33.7629" x2="60.3652" y2="33.7629" gradientUnits="userSpaceOnUse">
<stop stop-color="#E5C430"/>
<stop offset="1" stop-color="#E5C430" stop-opacity="0.25"/>
</linearGradient>
</defs>
</svg>
